<?xml version="1.0" encoding="UTF-8" standalone="no"?><!DOCTYPE svg PUBLIC "-//W3C//DTD SVG 1.1//EN" "http://www.w3.org/Graphics/SVG/1.1/DTD/svg11.dtd"><svg width="100%" height="100%" viewBox="0 0 188 185" version="1.1" xmlns="http://www.w3.org/2000/svg" xmlns:xlink="http://www.w3.org/1999/xlink" xml:space="preserve" xmlns:serif="http://www.serif.com/" style="fill-rule:evenodd;clip-rule:evenodd;"><rect id="Artboard1" x="0" y="0" width="188" height="185" style="fill:none;"/><clipPath id="_clip1"><rect x="0" y="0" width="188" height="185"/></clipPath><g clip-path="url(#_clip1)"><g><g><g><g><clipPath id="_clip2"><rect x="-0.068" y="0.13" width="188" height="185.224"/></clipPath><g clip-path="url(#_clip2)"><rect x="-0.068" y="0.13" width="188.12" height="185.224" style="fill-rule:nonzero;"/></g></g></g></g></g><g><clipPath id="_clip3"><rect x="-0.068" y="0.13" width="187.995" height="185"/></clipPath><g clip-path="url(#_clip3)"><rect x="-0.068" y="0.13" width="187.995" height="185.219" style="fill:none;fill-rule:nonzero;stroke:#fff;stroke-width:8px;"/></g></g><g><g><g><g><g><g><g><path d="M52.425,78.847l14.229,0l0,-14.896c-0.167,-3.958 -0.958,-7.427 -2.375,-10.417c-0.615,-1.318 -1.385,-2.615 -2.312,-3.896c-0.917,-1.276 -2.036,-2.401 -3.354,-3.375c-1.323,-0.958 -2.885,-1.74 -4.687,-2.354c-1.792,-0.625 -3.875,-0.938 -6.25,-0.938c-2.375,0 -4.49,0.312 -6.333,0.938c-1.849,0.615 -3.432,1.396 -4.75,2.354c-1.323,0.974 -2.427,2.099 -3.312,3.375c-0.875,1.281 -1.62,2.578 -2.229,3.896c-1.406,2.99 -2.198,6.458 -2.375,10.417l0,57.104c-0.182,3.958 0.344,7.474 1.583,10.542c0.526,1.323 1.208,2.599 2.042,3.833c0.833,1.24 1.818,2.333 2.958,3.292c1.234,1.057 2.667,1.87 4.292,2.438c1.625,0.583 3.583,0.875 5.875,0.875c2.292,0 4.38,-0.531 6.271,-1.583c1.885,-1.052 3.49,-2.422 4.812,-4.104l1.708,4.625l8.438,0l0,-48.271l-19.917,0l0,12l5.688,0l0,17.542c0,1.583 -0.182,2.771 -0.542,3.562c-0.266,0.974 -0.729,1.812 -1.396,2.521c-0.656,0.698 -1.594,1.042 -2.812,1.042c-1.156,0 -2.078,-0.354 -2.771,-1.062c-1.323,-1.484 -1.979,-3.505 -1.979,-6.062l0,-58.292c0,-1.417 0.172,-2.604 0.521,-3.562c0.26,-0.885 0.719,-1.698 1.375,-2.438c0.667,-0.75 1.615,-1.125 2.854,-1.125c1.219,0 2.188,0.349 2.896,1.042c1.234,1.5 1.854,3.531 1.854,6.083l0,14.896Z" style="fill:#fff;fill-rule:nonzero;"/><path d="M100.67,70.013l14,-1.312c0,-2.734 -0.245,-5.615 -0.729,-8.646c-0.49,-3.026 -1.432,-5.859 -2.833,-8.5c-1.417,-2.552 -3.427,-4.646 -6.021,-6.271c-2.583,-1.625 -6.031,-2.396 -10.333,-2.312c-3.349,0.083 -6.208,0.812 -8.583,2.188c-2.375,1.365 -4.307,3.099 -5.792,5.208c-1.5,2.198 -2.583,4.635 -3.25,7.312c-0.656,2.682 -0.979,5.344 -0.979,7.979c0,2.641 0.396,5.24 1.188,7.792c1.401,5 3.729,10.01 6.979,15.021c1.583,2.474 3.125,4.807 4.625,7c1.5,2.198 2.948,4.307 4.354,6.333c0.708,0.958 1.344,1.927 1.917,2.896c0.568,0.974 1.156,1.938 1.771,2.896c1.052,1.948 1.927,3.823 2.625,5.625c0.708,1.792 1.062,3.479 1.062,5.062c0,3.083 -0.438,5.641 -1.312,7.667c-0.875,2.016 -2.37,3.021 -4.479,3.021c-1.5,0 -2.688,-0.479 -3.562,-1.437c-0.875,-0.969 -1.536,-2.25 -1.979,-3.833c-0.531,-1.5 -0.865,-3.234 -1,-5.208c-0.125,-1.984 -0.188,-3.984 -0.188,-6l-13.979,1.312c0,3.599 0.24,7.094 0.729,10.479c0.484,3.391 1.427,6.406 2.833,9.042c1.5,2.641 3.589,4.75 6.271,6.333c2.677,1.583 6.302,2.375 10.875,2.375c3.859,0 7.068,-0.682 9.625,-2.042c2.552,-1.375 4.573,-3.156 6.062,-5.354c1.5,-2.276 2.552,-4.865 3.167,-7.771c0.625,-2.901 0.938,-5.984 0.938,-9.25c0,-2.635 -0.396,-5.208 -1.188,-7.708c-0.792,-2.5 -1.807,-4.984 -3.042,-7.458c-1.24,-2.458 -2.646,-4.917 -4.229,-7.375c-1.583,-2.458 -3.208,-4.922 -4.875,-7.396c-1.406,-2.01 -2.766,-3.984 -4.083,-5.917c-1.323,-1.943 -2.51,-3.839 -3.562,-5.687c-1.057,-1.844 -1.917,-3.625 -2.583,-5.333c-0.656,-1.719 -0.979,-3.417 -0.979,-5.083c0,-2.818 0.344,-5.104 1.042,-6.854c0.708,-1.76 1.984,-2.687 3.833,-2.771c1.151,0 2.094,0.417 2.833,1.25c0.75,0.833 1.344,1.911 1.792,3.229c0.427,1.406 0.708,2.948 0.833,4.625c0.135,1.667 0.208,3.292 0.208,4.875Z" style="fill:#fff;fill-rule:nonzero;"/><path d="M145.131,78.847l14.229,0l0,-14.896c-0.167,-3.958 -0.958,-7.427 -2.375,-10.417c-0.615,-1.318 -1.385,-2.615 -2.312,-3.896c-0.917,-1.276 -2.036,-2.401 -3.354,-3.375c-1.323,-0.958 -2.885,-1.74 -4.688,-2.354c-1.792,-0.625 -3.875,-0.938 -6.25,-0.938c-2.375,0 -4.49,0.312 -6.333,0.938c-1.849,0.615 -3.432,1.396 -4.75,2.354c-1.323,0.974 -2.427,2.099 -3.312,3.375c-0.875,1.281 -1.62,2.578 -2.229,3.896c-1.406,2.99 -2.198,6.458 -2.375,10.417l0,57.104c-0.182,3.958 0.344,7.474 1.583,10.542c0.526,1.323 1.208,2.599 2.042,3.833c0.833,1.24 1.818,2.333 2.958,3.292c1.234,1.057 2.667,1.87 4.292,2.438c1.625,0.583 3.583,0.875 5.875,0.875c2.292,0 4.38,-0.531 6.271,-1.583c1.885,-1.052 3.49,-2.422 4.812,-4.104l1.708,4.625l8.438,0l0,-48.271l-19.917,0l0,12l5.688,0l0,17.542c0,1.583 -0.182,2.771 -0.542,3.562c-0.266,0.974 -0.729,1.812 -1.396,2.521c-0.656,0.698 -1.594,1.042 -2.812,1.042c-1.156,0 -2.078,-0.354 -2.771,-1.062c-1.323,-1.484 -1.979,-3.505 -1.979,-6.062l0,-58.292c0,-1.417 0.172,-2.604 0.521,-3.562c0.26,-0.885 0.719,-1.698 1.375,-2.438c0.667,-0.75 1.615,-1.125 2.854,-1.125c1.219,0 2.188,0.349 2.896,1.042c1.234,1.5 1.854,3.531 1.854,6.083l0,14.896Z" style="fill:#fff;fill-rule:nonzero;"/></g></g></g></g></g></g></g></g></svg>