<?xml version="1.0" encoding="UTF-8" standalone="no"?><!DOCTYPE svg PUBLIC "-//W3C//DTD SVG 1.1//EN" "http://www.w3.org/Graphics/SVG/1.1/DTD/svg11.dtd"><svg width="100%" height="100%" viewBox="0 0 912 187" version="1.1" xmlns="http://www.w3.org/2000/svg" xmlns:xlink="http://www.w3.org/1999/xlink" xml:space="preserve" xmlns:serif="http://www.serif.com/" style="fill-rule:evenodd;clip-rule:evenodd;"><rect id="Artboard1" x="0" y="0" width="912" height="187" style="fill:none;"/><g><g><g><g><rect x="0.943" y="1.5" width="910.208" height="185.229" style="fill-rule:nonzero;"/></g></g></g></g><g><clipPath id="_clip1"><rect x="0.953" y="1.5" width="909.99" height="185"/></clipPath><g clip-path="url(#_clip1)"><rect x="0.953" y="1.5" width="910.464" height="185.219" style="fill:none;fill-rule:nonzero;stroke:#fff;stroke-width:8px;"/></g></g><g><g><g><g><g><g><path d="M91.548,81.617l12.417,0l0,-12.979c-0.156,-3.443 -0.844,-6.469 -2.062,-9.083c-0.542,-1.135 -1.219,-2.26 -2.021,-3.375c-0.807,-1.109 -1.781,-2.089 -2.917,-2.938c-1.156,-0.844 -2.516,-1.531 -4.083,-2.062c-1.573,-0.542 -3.391,-0.812 -5.458,-0.812c-2.073,0 -3.911,0.271 -5.521,0.812c-1.599,0.531 -2.974,1.219 -4.125,2.062c-1.156,0.849 -2.115,1.828 -2.875,2.938c-0.766,1.115 -1.417,2.24 -1.958,3.375c-1.224,2.615 -1.911,5.641 -2.062,9.083l0,49.729c-0.156,3.458 0.302,6.531 1.375,9.208c0.458,1.141 1.047,2.25 1.771,3.333c0.734,1.073 1.604,2.021 2.604,2.854c1.068,0.917 2.312,1.625 3.729,2.125c1.417,0.5 3.115,0.75 5.104,0.75c2,0 3.818,-0.458 5.458,-1.375c1.651,-0.917 3.047,-2.104 4.188,-3.562l1.5,4.021l7.354,0l0,-42.042l-17.354,0l0,10.458l4.938,0l0,15.271c0,1.375 -0.156,2.411 -0.458,3.104c-0.224,0.849 -0.625,1.578 -1.208,2.188c-0.573,0.615 -1.391,0.917 -2.458,0.917c-1,0 -1.807,-0.302 -2.417,-0.917c-1.156,-1.302 -1.729,-3.068 -1.729,-5.292l0,-50.771c0,-1.219 0.156,-2.255 0.479,-3.104c0.219,-0.76 0.615,-1.469 1.188,-2.125c0.583,-0.651 1.406,-0.979 2.479,-0.979c1.068,0 1.906,0.307 2.521,0.917c1.068,1.307 1.604,3.073 1.604,5.292l0,12.979Z" style="fill:#fff;fill-rule:nonzero;"/></g></g></g><g><g><g><path d="M113.044,51.284l0,84.437l28.375,0l0,-12.75l-15.979,0l0,-23.208l11.479,0l0,-13.562l-11.479,0l0,-22.167l15.979,0l0,-12.75l-28.375,0Z" style="fill:#fff;fill-rule:nonzero;"/></g></g></g><g><g><g><path d="M161.389,91.721l12.062,44l11.021,0l0,-84.437l-11.354,0l0,47.917l-0.688,0l-1.042,-3.917l-12.062,-44l-11.021,0l0,84.437l11.354,0l0,-47.896l0.708,0l1.021,3.896Z" style="fill:#fff;fill-rule:nonzero;"/></g></g></g><g><g><g><path d="M193.676,51.284l0,84.437l28.375,0l0,-12.75l-15.979,0l0,-23.208l11.479,0l0,-13.562l-11.479,0l0,-22.167l15.979,0l0,-12.75l-28.375,0Z" style="fill:#fff;fill-rule:nonzero;"/></g></g></g><g><g><g><path d="M251.105,135.721l12.396,0l-7.917,-40.896c2.375,-1.609 4.115,-4.156 5.229,-7.646c1.109,-3.484 1.667,-7.333 1.667,-11.542c0,-7.958 -1.667,-14.005 -5,-18.146c-3.333,-4.135 -8.719,-6.208 -16.146,-6.208l-12.396,0l0,84.437l12.396,0l0,-35.604l3.333,0l6.438,35.604Zm-9.771,-47.104l0,-25.042c0.844,0 1.802,0.078 2.875,0.229c1.068,0.156 2.062,0.656 2.979,1.5c0.917,0.766 1.698,2.01 2.354,3.729c0.651,1.724 0.979,4.078 0.979,7.062c0,2.99 -0.328,5.307 -0.979,6.958c-0.656,1.641 -1.438,2.885 -2.354,3.729c-0.917,0.766 -1.911,1.266 -2.979,1.5c-1.073,0.224 -2.031,0.333 -2.875,0.333Z" style="fill:#fff;fill-rule:nonzero;"/></g></g></g><g><g><g><rect x="270.403" y="51.284" width="12.396" height="84.437" style="fill:#fff;fill-rule:nonzero;"/></g></g></g><g><g><g><path d="M324.267,106.763l-11.604,0l0,11.604c0,1.391 -0.156,2.427 -0.458,3.104c-0.307,0.849 -0.766,1.578 -1.375,2.188c-0.615,0.615 -1.573,0.917 -2.875,0.917c-1,0 -1.807,-0.302 -2.417,-0.917c-1.224,-1.302 -1.875,-3.068 -1.958,-5.292l0,-49.729c0.083,-0.609 0.156,-1.167 0.229,-1.667c0.083,-0.5 0.198,-0.979 0.354,-1.438c0.302,-0.76 0.74,-1.469 1.313,-2.125c0.583,-0.651 1.406,-0.979 2.479,-0.979c1.302,0 2.26,0.307 2.875,0.917c1.219,1.307 1.833,3.073 1.833,5.292l0,11.604l11.604,0l0,-11.604c-0.156,-3.443 -0.844,-6.469 -2.062,-9.083c-0.542,-1.135 -1.219,-2.26 -2.021,-3.375c-0.807,-1.109 -1.781,-2.089 -2.917,-2.938c-1.156,-0.844 -2.516,-1.531 -4.083,-2.062c-1.573,-0.542 -3.391,-0.812 -5.458,-0.812c-2.073,0 -3.911,0.271 -5.521,0.812c-1.599,0.531 -2.974,1.219 -4.125,2.062c-1.156,0.849 -2.115,1.828 -2.875,2.938c-0.766,1.115 -1.417,2.24 -1.958,3.375c-1.224,2.615 -1.911,5.641 -2.062,9.083l0,49.729c0.151,3.531 0.839,6.599 2.062,9.208c0.542,1.141 1.193,2.25 1.958,3.333c0.76,1.073 1.719,2.021 2.875,2.854c2.375,1.917 5.589,2.875 9.646,2.875c3.984,0 7.167,-0.958 9.542,-2.875c1.135,-0.833 2.109,-1.781 2.917,-2.854c0.802,-1.083 1.479,-2.193 2.021,-3.333c1.219,-2.609 1.906,-5.677 2.062,-9.208l0,-11.604Z" style="fill:#fff;fill-rule:nonzero;"/></g></g></g><g><g><g><path d="M369.989,73.909l12.167,-1.146c0,-2.375 -0.219,-4.88 -0.646,-7.521c-0.417,-2.635 -1.24,-5.104 -2.458,-7.396c-1.224,-2.219 -2.969,-4.042 -5.229,-5.458c-2.25,-1.417 -5.26,-2.089 -9.021,-2.021c-2.906,0.083 -5.391,0.724 -7.458,1.917c-2.073,1.182 -3.76,2.688 -5.062,4.521c-1.292,1.917 -2.229,4.042 -2.812,6.375c-0.573,2.333 -0.854,4.656 -0.854,6.958c0,2.292 0.344,4.552 1.042,6.771c1.219,4.365 3.25,8.724 6.083,13.083c1.375,2.156 2.714,4.188 4.021,6.104c1.302,1.917 2.568,3.75 3.792,5.5c0.609,0.849 1.167,1.698 1.667,2.542c0.5,0.833 1.01,1.677 1.542,2.521c0.917,1.682 1.677,3.307 2.292,4.875c0.625,1.573 0.938,3.052 0.938,4.438c0,2.682 -0.391,4.906 -1.167,6.667c-0.766,1.75 -2.062,2.625 -3.896,2.625c-1.307,0 -2.344,-0.417 -3.104,-1.25c-0.766,-0.844 -1.344,-1.958 -1.729,-3.333c-0.458,-1.302 -0.745,-2.818 -0.854,-4.542c-0.115,-1.719 -0.167,-3.464 -0.167,-5.229l-12.188,1.146c0,3.141 0.208,6.188 0.625,9.146c0.427,2.948 1.255,5.562 2.479,7.854c1.302,2.307 3.125,4.146 5.458,5.521c2.333,1.375 5.49,2.062 9.479,2.062c3.375,0 6.167,-0.594 8.375,-1.771c2.219,-1.193 3.984,-2.75 5.292,-4.667c1.302,-1.984 2.219,-4.24 2.75,-6.771c0.542,-2.526 0.812,-5.208 0.812,-8.042c0,-2.292 -0.349,-4.526 -1.042,-6.708c-0.682,-2.193 -1.557,-4.359 -2.625,-6.5c-1.083,-2.135 -2.312,-4.276 -3.688,-6.417c-1.375,-2.151 -2.792,-4.302 -4.25,-6.458c-1.224,-1.75 -2.411,-3.464 -3.562,-5.146c-1.156,-1.693 -2.188,-3.344 -3.104,-4.958c-0.917,-1.609 -1.667,-3.156 -2.25,-4.646c-0.573,-1.5 -0.854,-2.969 -0.854,-4.417c0,-2.458 0.302,-4.448 0.917,-5.979c0.625,-1.542 1.734,-2.344 3.333,-2.417c1,0 1.823,0.37 2.479,1.104c0.651,0.724 1.167,1.656 1.542,2.792c0.385,1.24 0.635,2.583 0.75,4.042c0.125,1.448 0.188,2.854 0.188,4.229Z" style="fill:#fff;fill-rule:nonzero;"/></g></g></g><g><g><g><path d="M401.219,51.284l-12.396,0l0,84.437l12.396,0l0,-29.875l2.875,-6.875l0.688,-1.729l0.354,0l0.333,1.729l8.625,36.75l12.062,0l-12.875,-56.625l11.375,-27.812l-12.062,0l-10.333,28.146l-0.583,1.375l-0.458,0l0,-29.521Z" style="fill:#fff;fill-rule:nonzero;"/></g></g></g><g><g><g><rect x="431.896" y="51.284" width="12.396" height="84.437" style="fill:#fff;fill-rule:nonzero;"/></g></g></g><g><g><g><path d="M475.657,135.721l12.396,0l-7.917,-40.896c2.375,-1.609 4.115,-4.156 5.229,-7.646c1.109,-3.484 1.667,-7.333 1.667,-11.542c0,-7.958 -1.667,-14.005 -5,-18.146c-3.333,-4.135 -8.719,-6.208 -16.146,-6.208l-12.396,0l0,84.437l12.396,0l0,-35.604l3.333,0l6.438,35.604Zm-9.771,-47.104l0,-25.042c0.844,0 1.802,0.078 2.875,0.229c1.068,0.156 2.062,0.656 2.979,1.5c0.917,0.766 1.698,2.01 2.354,3.729c0.651,1.724 0.979,4.078 0.979,7.062c0,2.99 -0.328,5.307 -0.979,6.958c-0.656,1.641 -1.438,2.885 -2.354,3.729c-0.917,0.766 -1.911,1.266 -2.979,1.5c-1.073,0.224 -2.031,0.333 -2.875,0.333Z" style="fill:#fff;fill-rule:nonzero;"/></g></g></g><g><g><g><path d="M515.517,135.721l5.271,0l7.938,-53.062l0.458,-3.562l0.688,0l0,56.625l11.479,0l0,-84.437l-15.167,0l-7.354,38.604l-0.562,4.479l-0.229,0l-0.583,-4.479l-7.354,-38.604l-15.146,0l0,84.437l11.479,0l0,-56.625l0.688,0l0.458,3.562l7.938,53.062Z" style="fill:#fff;fill-rule:nonzero;"/></g></g></g><g><g><g><rect x="550.547" y="51.284" width="12.396" height="84.437" style="fill:#fff;fill-rule:nonzero;"/></g></g></g><g><g><g><path d="M592.703,73.909l12.167,-1.146c0,-2.375 -0.219,-4.88 -0.646,-7.521c-0.417,-2.635 -1.24,-5.104 -2.458,-7.396c-1.224,-2.219 -2.969,-4.042 -5.229,-5.458c-2.25,-1.417 -5.26,-2.089 -9.021,-2.021c-2.906,0.083 -5.391,0.724 -7.458,1.917c-2.073,1.182 -3.76,2.688 -5.062,4.521c-1.292,1.917 -2.229,4.042 -2.812,6.375c-0.573,2.333 -0.854,4.656 -0.854,6.958c0,2.292 0.344,4.552 1.042,6.771c1.219,4.365 3.25,8.724 6.083,13.083c1.375,2.156 2.714,4.188 4.021,6.104c1.302,1.917 2.568,3.75 3.792,5.5c0.609,0.849 1.167,1.698 1.667,2.542c0.5,0.833 1.01,1.677 1.542,2.521c0.917,1.682 1.677,3.307 2.292,4.875c0.625,1.573 0.938,3.052 0.938,4.438c0,2.682 -0.391,4.906 -1.167,6.667c-0.766,1.75 -2.062,2.625 -3.896,2.625c-1.307,0 -2.344,-0.417 -3.104,-1.25c-0.766,-0.844 -1.344,-1.958 -1.729,-3.333c-0.458,-1.302 -0.745,-2.818 -0.854,-4.542c-0.115,-1.719 -0.167,-3.464 -0.167,-5.229l-12.188,1.146c0,3.141 0.208,6.188 0.625,9.146c0.427,2.948 1.255,5.562 2.479,7.854c1.302,2.307 3.125,4.146 5.458,5.521c2.333,1.375 5.49,2.062 9.479,2.062c3.375,0 6.167,-0.594 8.375,-1.771c2.219,-1.193 3.984,-2.75 5.292,-4.667c1.302,-1.984 2.219,-4.24 2.75,-6.771c0.542,-2.526 0.812,-5.208 0.812,-8.042c0,-2.292 -0.349,-4.526 -1.042,-6.708c-0.682,-2.193 -1.557,-4.359 -2.625,-6.5c-1.083,-2.135 -2.312,-4.276 -3.688,-6.417c-1.375,-2.151 -2.792,-4.302 -4.25,-6.458c-1.224,-1.75 -2.411,-3.464 -3.562,-5.146c-1.156,-1.693 -2.188,-3.344 -3.104,-4.958c-0.917,-1.609 -1.667,-3.156 -2.25,-4.646c-0.573,-1.5 -0.854,-2.969 -0.854,-4.417c0,-2.458 0.302,-4.448 0.917,-5.979c0.625,-1.542 1.734,-2.344 3.333,-2.417c1,0 1.823,0.37 2.479,1.104c0.651,0.724 1.167,1.656 1.542,2.792c0.385,1.24 0.635,2.583 0.75,4.042c0.125,1.448 0.188,2.854 0.188,4.229Z" style="fill:#fff;fill-rule:nonzero;"/></g></g></g><g><g><g><path d="M633.579,98.971l0,36.75l12.417,0l0,-84.437l-12.417,0l0,34.917l-9.646,0l0,-34.917l-12.396,0l0,84.437l12.396,0l0,-36.75l9.646,0Z" style="fill:#fff;fill-rule:nonzero;"/></g></g></g><g><g><g><path d="M692.727,81.617l12.417,0l0,-12.979c-0.156,-3.443 -0.844,-6.469 -2.062,-9.083c-0.542,-1.135 -1.219,-2.26 -2.021,-3.375c-0.807,-1.109 -1.781,-2.089 -2.917,-2.938c-1.156,-0.844 -2.516,-1.531 -4.083,-2.062c-1.573,-0.542 -3.391,-0.812 -5.458,-0.812c-2.073,0 -3.911,0.271 -5.521,0.812c-1.599,0.531 -2.974,1.219 -4.125,2.062c-1.156,0.849 -2.115,1.828 -2.875,2.938c-0.766,1.115 -1.417,2.24 -1.958,3.375c-1.224,2.615 -1.911,5.641 -2.062,9.083l0,49.729c-0.156,3.458 0.302,6.531 1.375,9.208c0.458,1.141 1.047,2.25 1.771,3.333c0.734,1.073 1.604,2.021 2.604,2.854c1.068,0.917 2.312,1.625 3.729,2.125c1.417,0.5 3.115,0.75 5.104,0.75c2,0 3.818,-0.458 5.458,-1.375c1.651,-0.917 3.047,-2.104 4.188,-3.562l1.5,4.021l7.354,0l0,-42.042l-17.354,0l0,10.458l4.938,0l0,15.271c0,1.375 -0.156,2.411 -0.458,3.104c-0.224,0.849 -0.625,1.578 -1.208,2.188c-0.573,0.615 -1.391,0.917 -2.458,0.917c-1,0 -1.807,-0.302 -2.417,-0.917c-1.156,-1.302 -1.729,-3.068 -1.729,-5.292l0,-50.771c0,-1.219 0.156,-2.255 0.479,-3.104c0.219,-0.76 0.615,-1.469 1.188,-2.125c0.583,-0.651 1.406,-0.979 2.479,-0.979c1.068,0 1.906,0.307 2.521,0.917c1.068,1.307 1.604,3.073 1.604,5.292l0,12.979Z" style="fill:#fff;fill-rule:nonzero;"/></g></g></g><g><g><g><path d="M710.765,135.721l12.062,0l2.292,-17.229l11.958,0l2.292,17.229l12.062,0l-12.75,-84.437l-15.167,0l-12.75,84.437Zm21.021,-56.979l3.562,26.646l-8.5,0l3.562,-26.646l0.354,-2.188l0.688,0l0.333,2.188Z" style="fill:#fff;fill-rule:nonzero;"/></g></g></g><g><g><g><path d="M777.743,135.721l5.271,0l7.938,-53.062l0.458,-3.562l0.688,0l0,56.625l11.479,0l0,-84.437l-15.167,0l-7.354,38.604l-0.562,4.479l-0.229,0l-0.583,-4.479l-7.354,-38.604l-15.146,0l0,84.437l11.479,0l0,-56.625l0.688,0l0.458,3.562l7.938,53.062Z" style="fill:#fff;fill-rule:nonzero;"/></g></g></g><g><g><g><path d="M812.773,51.284l0,84.437l28.375,0l0,-12.75l-15.979,0l0,-23.208l11.479,0l0,-13.562l-11.479,0l0,-22.167l15.979,0l0,-12.75l-28.375,0Z" style="fill:#fff;fill-rule:nonzero;"/></g></g></g></g></g></g></svg>